<?xml version="1.0" encoding="UTF-8"?>
<svg width="188px" height="92px" viewBox="0 0 188 92" version="1.1" xmlns="http://www.w3.org/2000/svg" xmlns:xlink="http://www.w3.org/1999/xlink">
    <!-- Generator: Sketch 43.2 (39069) - http://www.bohemiancoding.com/sketch -->
    <title>BBW_Logo_Weiss</title>
    <desc>Created with Sketch.</desc>
    <defs></defs>
    <g id="Screens" stroke="none" stroke-width="1" fill="none" fill-rule="evenodd">
        <g id="iPhone-7" transform="translate(-77.000000, -378.000000)" fill-rule="nonzero" fill="#FFFFFF">
            <g id="BBW_Logo_Weiss" transform="translate(77.000000, 378.000000)">
                <path d="M64.3,91.5 L65.3,91.5 L67.8,82.7 L67.8,82.7 L70.3,91.5 L71.3,91.5 L74,81.6 L73.1,81.6 L70.8,90.3 L70.8,90.3 L68.4,81.6 L67.2,81.6 L64.8,90.3 L64.8,90.3 L62.6,81.6 L61.6,81.6 L64.3,91.5 L64.3,91.5 Z M75,91.5 L75.9,91.5 L75.9,84.4 L75,84.4 L75,91.5 L75,91.5 Z M75,83 L75.9,83 L75.9,81.6 L75,81.6 L75,83 L75,83 Z M77.5,91.5 L78.4,91.5 L78.4,87.3 C78.4,85.9 79.3,84.8 80.6,84.8 C82,84.8 82.4,85.7 82.4,87 L82.4,91.5 L83.3,91.5 L83.3,86.9 C83.3,85.2 82.7,84.1 80.7,84.1 C79.7,84.1 78.7,84.7 78.4,85.5 L78.4,85.5 L78.4,84.3 L77.5,84.3 L77.5,91.5 L77.5,91.5 Z M86.2,82.2 L85.3,82.2 L85.3,84.3 L84,84.3 L84,85 L85.2,85 L85.2,89.9 C85.2,91.1 85.6,91.5 86.7,91.5 L87.5,91.5 L87.5,90.8 L86.8,90.8 C86.2,90.8 86.1,90.4 86.1,89.9 L86.1,85.1 L87.6,85.1 L87.6,84.4 L86.1,84.4 L86.1,82.2 L86.2,82.2 Z M94.5,88.2 C94.6,86.2 93.7,84.2 91.4,84.2 C89.1,84.2 88.2,86.1 88.2,88 C88.2,90 89.2,91.8 91.4,91.8 C93.2,91.8 94.1,90.9 94.5,89.2 L93.6,89.2 C93.3,90.3 92.6,91 91.4,91 C89.7,91 89.1,89.5 89,88.2 L94.5,88.2 L94.5,88.2 Z M89,87.4 C89.1,86.1 89.9,84.9 91.4,84.9 C92.8,84.9 93.6,86.1 93.7,87.4 L89,87.4 L89,87.4 Z M95.7,91.5 L96.6,91.5 L96.6,87.7 C96.6,86.2 97.7,85.1 99.3,85.1 L99.3,84.2 C98,84.1 97,84.8 96.6,86 L96.6,86 L96.6,84.3 L95.8,84.3 L95.8,91.5 L95.7,91.5 Z M101.9,82.2 L101,82.2 L101,84.3 L99.8,84.3 L99.8,85 L101,85 L101,89.9 C101,91.1 101.4,91.5 102.5,91.5 L103.3,91.5 L103.3,90.8 L102.6,90.8 C102,90.8 101.9,90.4 101.9,89.9 L101.9,85.1 L103.4,85.1 L103.4,84.4 L101.9,84.4 L101.9,82.2 L101.9,82.2 Z M104.4,91.5 L105.3,91.5 L105.3,87.3 C105.3,85.9 106.2,84.8 107.5,84.8 C108.9,84.8 109.3,85.7 109.3,87 L109.3,91.5 L110.2,91.5 L110.2,86.9 C110.2,85.2 109.6,84.1 107.6,84.1 C106.6,84.1 105.6,84.7 105.3,85.5 L105.3,85.5 L105.3,81.5 L104.4,81.5 L104.4,91.5 L104.4,91.5 Z M117.6,84.4 L116.7,84.4 L116.7,88.2 C116.7,89.7 116.1,91.1 114.6,91.1 C113.2,91.1 112.7,90.4 112.7,89.1 L112.7,84.4 L111.8,84.4 L111.8,89 C111.8,90.7 112.5,91.7 114.3,91.7 C115.4,91.7 116.3,91.2 116.8,90.2 L116.8,90.2 L116.8,91.5 L117.6,91.5 L117.6,84.4 L117.6,84.4 Z M119.2,91.5 L120.1,91.5 L120.1,87.7 C120.1,86.2 121.2,85.1 122.8,85.1 L122.8,84.2 C121.5,84.1 120.5,84.8 120.1,86 L120.1,86 L120.1,84.3 L119.3,84.3 L119.3,91.5 L119.2,91.5 Z" id="Shape"></path>
                <path d="M63.3,71.3 L66.5,71.3 C68.1,71.3 69.1,72 69.1,73.2 C69.1,74.8 67.9,75.3 66.5,75.2 L63.3,75.2 L63.3,71.3 L63.3,71.3 Z M62.4,76.1 L66.6,76.1 C69.8,76.1 70.1,74.2 70.1,73.3 C70.1,72 69.3,71.1 68,70.9 L68,70.9 C69,70.7 69.7,69.7 69.7,68.7 C69.7,66.9 68.2,66.3 66.5,66.3 L62.3,66.3 L62.3,76.1 L62.4,76.1 Z M63.3,67 L66.5,67 C68,67 68.7,67.6 68.7,68.9 C68.7,69.8 68,70.6 66.5,70.6 L63.3,70.6 L63.3,67 L63.3,67 Z M77.4,72.7 C77.5,70.7 76.6,68.7 74.3,68.7 C72,68.7 71.1,70.6 71.1,72.5 C71.1,74.5 72.1,76.3 74.3,76.3 C76.1,76.3 77,75.4 77.4,73.7 L76.5,73.7 C76.2,74.8 75.5,75.5 74.3,75.5 C72.6,75.5 72,74 71.9,72.7 L77.4,72.7 L77.4,72.7 Z M71.9,72 C72,70.7 72.8,69.5 74.3,69.5 C75.7,69.5 76.5,70.7 76.6,72 L71.9,72 L71.9,72 Z M78.6,76.1 L79.5,76.1 L79.5,72.3 C79.5,70.8 80.6,69.7 82.2,69.7 L82.2,68.8 C80.9,68.7 79.9,69.4 79.5,70.6 L79.5,70.6 L79.5,68.9 L78.7,68.9 L78.7,76.1 L78.6,76.1 Z M88.8,68.9 L87.9,68.9 L87.9,72.7 C87.9,74.2 87.2,75.6 85.8,75.6 C84.4,75.6 83.9,74.9 83.9,73.6 L83.9,68.9 L83,68.9 L83,73.5 C83,75.2 83.7,76.2 85.5,76.2 C86.6,76.2 87.5,75.7 88,74.7 L88,74.7 L88,76 L88.8,76 L88.8,68.9 L88.8,68.9 Z M93.2,68.9 L91.8,68.9 L91.8,68.3 C91.8,67.5 91.8,66.9 92.8,66.9 C93,66.9 93.2,66.9 93.4,67 L93.4,66.3 C93.1,66.3 92.9,66.2 92.7,66.2 C91.3,66.2 91,67.1 91,68.3 L91,69 L89.8,69 L89.8,69.7 L91,69.7 L91,76.1 L91.9,76.1 L91.9,69.7 L93.3,69.7 L93.3,68.9 L93.2,68.9 Z M99.2,71 C99.1,69.4 98,68.7 96.6,68.7 C95.3,68.7 93.9,69.3 93.9,70.7 C93.9,71.9 94.8,72.3 95.9,72.6 L97,72.8 C97.8,73 98.6,73.3 98.6,74.1 C98.6,75.1 97.5,75.5 96.6,75.5 C95.4,75.5 94.6,74.9 94.5,73.7 L93.6,73.7 C93.7,75.4 94.9,76.2 96.5,76.2 C97.8,76.2 99.4,75.6 99.4,74.1 C99.4,72.9 98.4,72.3 97.4,72.1 L96.2,71.8 C95.6,71.6 94.7,71.4 94.7,70.6 C94.7,69.7 95.6,69.4 96.4,69.4 C97.4,69.4 98.2,69.9 98.3,71 L99.2,71 L99.2,71 Z M106.4,72.5 C106.4,74 105.7,75.5 104.1,75.5 C102.2,75.5 101.6,73.9 101.6,72.5 C101.6,71 102.3,69.5 104.1,69.5 C105.7,69.5 106.4,71 106.4,72.5 L106.4,72.5 Z M100.7,76.1 L101.5,76.1 L101.5,74.7 L101.5,74.7 C101.9,75.7 102.9,76.3 104,76.3 C106.2,76.3 107.2,74.5 107.2,72.5 C107.2,70.5 106.2,68.7 104,68.7 C102.9,68.7 101.9,69.2 101.5,70.3 L101.5,70.3 L101.5,66.2 L100.6,66.2 L100.6,76.1 L100.7,76.1 Z M108.6,76.1 L109.5,76.1 L109.5,69 L108.6,69 L108.6,76.1 L108.6,76.1 Z M108.6,67.6 L109.5,67.6 L109.5,66.2 L108.6,66.2 L108.6,67.6 L108.6,67.6 Z M111.1,76.1 L112,76.1 L112,66.2 L111.1,66.2 L111.1,76.1 L111.1,76.1 Z M114.1,72.5 C114.1,71 114.8,69.5 116.4,69.5 C118.3,69.5 118.9,71.1 118.9,72.5 C118.9,74 118.2,75.5 116.4,75.5 C114.8,75.6 114.1,74 114.1,72.5 L114.1,72.5 Z M119.9,66.2 L119,66.2 L119,70.3 L119,70.3 C118.6,69.3 117.6,68.7 116.5,68.7 C114.3,68.7 113.3,70.5 113.3,72.5 C113.3,74.5 114.3,76.3 116.5,76.3 C117.5,76.3 118.7,75.7 119,74.7 L119,74.7 L119,76.1 L119.8,76.1 L119.8,66.2 L119.9,66.2 Z M127.3,68.9 L126.4,68.9 L126.4,72.7 C126.4,74.2 125.7,75.6 124.3,75.6 C122.9,75.6 122.4,74.9 122.4,73.6 L122.4,68.9 L121.5,68.9 L121.5,73.5 C121.5,75.2 122.2,76.2 124,76.2 C125.1,76.2 126,75.7 126.5,74.7 L126.5,74.7 L126.5,76 L127.3,76 L127.3,68.9 L127.3,68.9 Z M128.9,76.1 L129.8,76.1 L129.8,71.9 C129.8,70.5 130.7,69.4 132,69.4 C133.4,69.4 133.8,70.3 133.8,71.6 L133.8,76.1 L134.7,76.1 L134.7,71.5 C134.7,69.8 134.1,68.7 132.1,68.7 C131.1,68.7 130.1,69.3 129.8,70.1 L129.8,70.1 L129.8,68.9 L128.9,68.9 L128.9,76.1 L128.9,76.1 Z M139.1,75.3 C137.5,75.3 136.7,73.9 136.7,72.5 C136.7,71 137.4,69.5 139.1,69.5 C140.7,69.5 141.4,71.1 141.4,72.5 C141.4,73.9 140.6,75.3 139.1,75.3 L139.1,75.3 Z M142.3,68.9 L141.4,68.9 L141.4,70.1 L141.4,70.1 C141.1,69.3 140.2,68.7 139.1,68.7 C137,68.7 135.9,70.3 135.9,72.3 C135.9,74.3 136.8,76 139.1,76 C140.1,76 141,75.4 141.4,74.5 L141.4,74.5 L141.4,75.5 C141.4,77.2 140.7,78.2 139.1,78.2 C138.1,78.2 137.2,77.8 137,76.8 L136.1,76.8 C136.2,78.3 137.6,79 139.1,79 C141.4,79 142.3,77.7 142.3,75.6 L142.3,68.9 L142.3,68.9 Z M149.1,71 C149,69.4 147.9,68.7 146.5,68.7 C145.2,68.7 143.8,69.3 143.8,70.7 C143.8,71.9 144.7,72.3 145.8,72.6 L146.9,72.8 C147.7,73 148.5,73.3 148.5,74.1 C148.5,75.1 147.4,75.5 146.5,75.5 C145.3,75.5 144.5,74.9 144.4,73.7 L143.5,73.7 C143.6,75.4 144.8,76.2 146.4,76.2 C147.7,76.2 149.3,75.6 149.3,74.1 C149.3,72.9 148.3,72.3 147.3,72.1 L146.1,71.8 C145.5,71.6 144.6,71.4 144.6,70.6 C144.6,69.7 145.5,69.4 146.3,69.4 C147.3,69.4 148.1,69.9 148.2,71 L149.1,71 L149.1,71 Z M155.7,71 C155.6,69.4 154.5,68.7 153.1,68.7 C151.8,68.7 150.4,69.3 150.4,70.7 C150.4,71.9 151.3,72.3 152.4,72.6 L153.5,72.8 C154.3,73 155.1,73.3 155.1,74.1 C155.1,75.1 154,75.5 153.1,75.5 C151.9,75.5 151.1,74.9 151,73.7 L150.1,73.7 C150.2,75.4 151.4,76.2 153,76.2 C154.3,76.2 155.9,75.6 155.9,74.1 C155.9,72.9 154.9,72.3 153.9,72.1 L152.7,71.8 C152.1,71.6 151.2,71.4 151.2,70.6 C151.2,69.7 152.1,69.4 152.9,69.4 C153.9,69.4 154.7,69.9 154.8,71 L155.7,71 L155.7,71 Z M163.1,71.2 C162.9,69.6 161.7,68.8 160.2,68.8 C158,68.8 156.8,70.5 156.8,72.6 C156.8,74.6 158,76.4 160.2,76.4 C161.8,76.4 162.9,75.3 163.1,73.6 L162.2,73.6 C162.1,74.8 161.2,75.6 160.1,75.6 C158.4,75.6 157.6,74.1 157.6,72.6 C157.6,71.1 158.4,69.6 160.1,69.6 C161.2,69.6 161.9,70.3 162.1,71.3 L163.1,71.3 L163.1,71.2 Z M164.3,76.1 L165.2,76.1 L165.2,71.9 C165.2,70.5 166.1,69.4 167.4,69.4 C168.8,69.4 169.2,70.3 169.2,71.6 L169.2,76.1 L170.1,76.1 L170.1,71.5 C170.1,69.8 169.5,68.7 167.5,68.7 C166.5,68.7 165.5,69.3 165.2,70.1 L165.2,70.1 L165.2,66.1 L164.3,66.1 L164.3,76.1 L164.3,76.1 Z M177.5,68.9 L176.6,68.9 L176.6,72.7 C176.6,74.2 175.9,75.6 174.5,75.6 C173.1,75.6 172.6,74.9 172.6,73.6 L172.6,68.9 L171.7,68.9 L171.7,73.5 C171.7,75.2 172.4,76.2 174.2,76.2 C175.3,76.2 176.2,75.7 176.7,74.7 L176.7,74.7 L176.7,76 L177.5,76 L177.5,68.9 L177.5,68.9 Z M179.1,76.1 L180,76.1 L180,66.2 L179.1,66.2 L179.1,76.1 L179.1,76.1 Z M187.6,72.7 C187.7,70.7 186.8,68.7 184.5,68.7 C182.2,68.7 181.3,70.6 181.3,72.5 C181.3,74.5 182.3,76.3 184.5,76.3 C186.3,76.3 187.2,75.4 187.6,73.7 L186.7,73.7 C186.4,74.8 185.7,75.5 184.5,75.5 C182.8,75.5 182.2,74 182.1,72.7 L187.6,72.7 L187.6,72.7 Z M182.1,72 C182.2,70.7 183,69.5 184.5,69.5 C185.9,69.5 186.7,70.7 186.8,72 L182.1,72 L182.1,72 Z" id="Shape"></path>
                <path d="M87.2,29.3 C89.7,26.3 91.3,22.4 91.3,18.2 C91.3,8.7 83.6,1 74.1,1 L62.4,1 L62.4,13.2 L74,13.2 L74,13.2 C76.8,13.2 79,15.4 79,18.2 C79,20.9 76.8,23.1 74.1,23.2 L74,23.2 L74,23.2 L74,23.2 L62.3,23.2 L62.3,35.4 L74,35.4 L74.1,35.4 C76.8,35.5 79,37.7 79,40.4 C79,43.2 76.8,45.4 74,45.4 L74,45.4 L62.3,45.4 L62.3,57.6 L74,57.6 C83.5,57.6 91.2,49.9 91.2,40.4 C91.3,36.2 89.8,32.3 87.2,29.3 L87.2,29.3 Z" id="Shape"></path>
                <path d="M121.2,29.3 C123.7,26.3 125.3,22.4 125.3,18.2 C125.3,8.7 117.6,1 108.1,1 L96.4,1 L96.4,13.2 L108,13.2 L108,13.2 C110.8,13.2 113,15.4 113,18.2 C113,20.9 110.8,23.1 108.1,23.2 L108,23.2 L108,23.2 L108,23.2 L96.3,23.2 L96.3,35.4 L108,35.4 L108.1,35.4 C110.8,35.5 113,37.7 113,40.4 C113,43.2 110.8,45.4 108,45.4 L108,45.4 L96.3,45.4 L96.3,57.6 L108,57.6 C117.5,57.6 125.2,49.9 125.2,40.4 C125.2,36.2 123.7,32.3 121.2,29.3 L121.2,29.3 Z" id="Shape"></path>
                <path d="M158.7,53.6 C161.7,56.1 165.6,57.7 169.8,57.7 C179.3,57.7 187,50 187,40.5 L187,28.8 L174.8,28.8 L174.8,40.5 L174.8,40.5 C174.8,43.3 172.6,45.5 169.8,45.5 C167.1,45.5 164.9,43.3 164.8,40.6 L164.8,40.5 L164.8,40.5 L164.8,40.5 L164.8,28.8 L152.6,28.8 L152.6,40.5 L152.6,40.6 C152.5,43.3 150.3,45.5 147.6,45.5 C144.8,45.5 142.6,43.3 142.6,40.5 L142.6,40.5 L142.6,28.8 L130.4,28.8 L130.4,40.5 C130.4,50 138.1,57.7 147.6,57.7 C151.9,57.7 155.7,56.2 158.7,53.6 L158.7,53.6 Z" id="Shape"></path>
                <path d="M9,30.7 C14,30.7 18,26.7 18,21.7 C18,16.7 14,12.7 9,12.7 C4,12.7 0,16.7 0,21.7 C0,26.7 4,30.7 9,30.7 L9,30.7 Z" id="Shape"></path>
                <path d="M35.7,34.5 C40.5,34.5 44.4,30.6 44.4,25.8 C44.4,21 40.5,17.1 35.7,17.1 C30.9,17.1 27,21 27,25.8 C27,30.6 30.9,34.5 35.7,34.5 L35.7,34.5 Z" id="Shape"></path>
                <path d="M20.8,46.8 C26.4,46.8 30.9,42.3 30.9,36.7 C30.9,31.1 26.4,26.6 20.8,26.6 C15.2,26.6 10.7,31.1 10.7,36.7 C10.7,42.3 15.2,46.8 20.8,46.8 L20.8,46.8 Z" id="Shape"></path>
                <path d="M22.8,26.8 C25.4,26.8 27.6,24.7 27.6,22 C27.6,19.4 25.5,17.2 22.8,17.2 C20.2,17.2 18,19.3 18,22 C18,24.7 20.2,26.8 22.8,26.8 L22.8,26.8 Z" id="Shape"></path>
                <path d="M32.4,8.3 C34.4,8.3 36.1,6.7 36.1,4.6 C36.1,2.6 34.5,0.9 32.4,0.9 C30.4,0.9 28.7,2.5 28.7,4.6 C28.7,6.7 30.4,8.3 32.4,8.3 L32.4,8.3 Z" id="Shape"></path>
                <path d="M35,43 C37.3,43 39.3,41.1 39.3,38.7 C39.3,36.4 37.4,34.4 35,34.4 C32.7,34.4 30.7,36.3 30.7,38.7 C30.7,41 32.6,43 35,43 L35,43 Z" id="Shape"></path>
                <path d="M28.6,19 C31.8,19 34.3,16.4 34.3,13.3 C34.3,10.1 31.7,7.6 28.6,7.6 C25.4,7.6 22.9,10.2 22.9,13.3 C22.9,16.4 25.5,19 28.6,19 L28.6,19 Z" id="Shape"></path>
                <path d="M50.5,32.9 C53.9,32.9 56.7,30.1 56.7,26.7 C56.7,23.3 53.9,20.5 50.5,20.5 C47.1,20.5 44.3,23.3 44.3,26.7 C44.3,30.1 47.1,32.9 50.5,32.9 L50.5,32.9 Z" id="Shape"></path>
                <path d="M12.6,57.7 C16.2,57.7 19.1,54.8 19.1,51.2 C19.1,47.6 16.2,44.7 12.6,44.7 C9,44.7 6.1,47.6 6.1,51.2 C6,54.8 9,57.7 12.6,57.7 L12.6,57.7 Z" id="Shape"></path>
            </g>
        </g>
    </g>
</svg>